<svg width="35" height="36" viewBox="0 0 35 36" fill="none" xmlns="http://www.w3.org/2000/svg">
<path d="M17.4998 3C15.5847 3 13.6884 3.38799 11.919 4.14181C10.1497 4.89563 8.54205 6.00052 7.18786 7.3934C4.45296 10.2064 2.9165 14.0218 2.9165 18C2.9165 24.63 7.10192 30.255 12.8915 32.25C13.6207 32.37 13.854 31.905 13.854 31.5V28.965C9.81442 29.865 8.954 26.955 8.954 26.955C8.28317 25.215 7.33525 24.75 7.33525 24.75C6.00817 23.82 7.43734 23.85 7.43734 23.85C8.89567 23.955 9.66859 25.395 9.66859 25.395C10.9373 27.675 13.0811 27 13.9123 26.64C14.0436 25.665 14.4228 25.005 14.8311 24.63C11.5936 24.255 8.19567 22.965 8.19567 17.25C8.19567 15.585 8.74984 14.25 9.69775 13.185C9.55192 12.81 9.0415 11.25 9.84359 9.225C9.84359 9.225 11.0686 8.82 13.854 10.755C15.0061 10.425 16.2603 10.26 17.4998 10.26C18.7394 10.26 19.9936 10.425 21.1457 10.755C23.9311 8.82 25.1561 9.225 25.1561 9.225C25.9582 11.25 25.4478 12.81 25.3019 13.185C26.2498 14.25 26.804 15.585 26.804 17.25C26.804 22.98 23.3915 24.24 20.1394 24.615C20.6644 25.08 21.1457 25.995 21.1457 27.39V31.5C21.1457 31.905 21.379 32.385 22.1228 32.25C27.9123 30.24 32.0832 24.63 32.0832 18C32.0832 16.0302 31.706 14.0796 30.9731 12.2597C30.2402 10.4399 29.166 8.78628 27.8118 7.3934C26.4576 6.00052 24.85 4.89563 23.0806 4.14181C21.3113 3.38799 19.4149 3 17.4998 3Z" fill="white"/>
</svg>
