<svg width="30" height="30" viewBox="0 0 30 30" fill="none" xmlns="http://www.w3.org/2000/svg">
<path d="M1.62857 8.265C2.90206 5.77987 4.85567 3.69077 7.27107 2.2312C9.68647 0.77164 12.4685 -0.000875353 15.3061 7.44347e-07C19.4311 7.44347e-07 22.8964 1.4865 25.5459 3.9075L21.1577 8.2095C19.5704 6.723 17.5531 5.9655 15.3061 5.9655C11.3189 5.9655 7.94388 8.6055 6.74235 12.15C6.43623 13.05 6.26174 14.01 6.26174 15C6.26174 15.99 6.43623 16.95 6.74235 17.85C7.94541 21.396 11.3189 24.0345 15.3061 24.0345C17.3648 24.0345 19.1173 23.502 20.4888 22.602C21.2838 22.089 21.9645 21.4233 22.4896 20.6452C23.0147 19.8671 23.3734 18.9928 23.5439 18.075H15.3061V12.273H29.7214C29.902 13.254 30 14.277 30 15.3405C30 19.9095 28.3316 23.7555 25.4357 26.3655C22.9041 28.6575 19.4388 30 15.3061 30C13.2959 30.0008 11.3052 29.6133 9.44777 28.8598C7.59038 28.1063 5.90273 27.0014 4.48127 25.6084C3.0598 24.2153 1.93239 22.5614 1.16347 20.7412C0.394552 18.9209 -0.000803359 16.9701 1.22558e-06 15C1.22558e-06 12.579 0.590817 10.29 1.62857 8.265Z" fill="white"/>
</svg>
