<svg width="21" height="21" viewBox="0 0 21 21" fill="none" xmlns="http://www.w3.org/2000/svg">
<path d="M1.95414 6.01C2.78615 4.35324 4.06251 2.96051 5.64057 1.98747C7.21863 1.01443 9.0362 0.499416 10.8901 0.5C13.5851 0.5 15.8491 1.491 17.5801 3.105L14.7131 5.973C13.6761 4.982 12.3581 4.477 10.8901 4.477C8.28514 4.477 6.08014 6.237 5.29514 8.6C5.09514 9.2 4.98114 9.84 4.98114 10.5C4.98114 11.16 5.09514 11.8 5.29514 12.4C6.08114 14.764 8.28514 16.523 10.8901 16.523C12.2351 16.523 13.3801 16.168 14.2761 15.568C14.7956 15.226 15.2403 14.7822 15.5833 14.2635C15.9264 13.7448 16.1607 13.1619 16.2721 12.55H10.8901V8.682H20.3081C20.4261 9.336 20.4901 10.018 20.4901 10.727C20.4901 13.773 19.4001 16.337 17.5081 18.077C15.8541 19.605 13.5901 20.5 10.8901 20.5C9.57677 20.5005 8.27617 20.2422 7.06268 19.7399C5.84919 19.2375 4.74659 18.5009 3.8179 17.5722C2.88921 16.6436 2.15263 15.541 1.65027 14.3275C1.14791 13.114 0.889612 11.8134 0.890138 10.5C0.890138 8.886 1.27614 7.36 1.95414 6.01Z" fill="black"/>
</svg>
