<svg width="15" height="15" viewBox="0 0 15 15" fill="none" xmlns="http://www.w3.org/2000/svg">
<path d="M7.5 0C3.375 0 0 3.375 0 7.5C0 11.625 3.375 15 7.5 15C11.625 15 15 11.625 15 7.5C15 3.375 11.625 0 7.5 0ZM8.25 10.5C8.25 10.95 7.95 11.25 7.5 11.25C7.05 11.25 6.75 10.95 6.75 10.5V7.5C6.75 7.05 7.05 6.75 7.5 6.75C7.95 6.75 8.25 7.05 8.25 7.5V10.5ZM7.5 5.25C7.05 5.25 6.75 4.95 6.75 4.5C6.75 4.05 7.05 3.75 7.5 3.75C7.95 3.75 8.25 4.05 8.25 4.5C8.25 4.95 7.95 5.25 7.5 5.25Z" fill="#878787" fill-opacity="0.24"/>
</svg>
