<svg width="68" height="61" viewBox="0 0 68 61" fill="none" xmlns="http://www.w3.org/2000/svg">
<g filter="url(#filter0_b_1120_1186)">
<path d="M67.9937 19.7241H0V39.8932L0.0176739 39.8932C0.0176737 43.4377 4.71087 46.29 14.0973 51.9947C23.4837 57.6994 28.1769 60.5517 34.0088 60.5517C39.8408 60.5517 44.534 57.6994 53.9204 51.9947C63.3068 46.29 68 43.4377 68 39.8932C68 39.8184 67.9979 39.7439 67.9937 39.6696V19.7241Z" fill="url(#paint0_linear_1120_1186)"/>
</g>
<g filter="url(#filter1_b_1120_1186)">
<path d="M14.0893 8.16531C23.4708 2.72177 28.1616 2.01594e-07 33.9905 0C39.8194 -2.01594e-07 44.5101 2.72177 53.8916 8.16531C63.2731 13.6089 67.9638 16.3306 67.9638 19.7128C67.9638 23.095 63.2731 25.8168 53.8916 31.2603C44.5101 36.7038 39.8194 39.4256 33.9905 39.4256C28.1616 39.4256 23.4708 36.7038 14.0893 31.2603C4.70783 25.8168 0.0170896 23.095 0.0170898 19.7128C0.01709 16.3306 4.70784 13.6089 14.0893 8.16531Z" fill="url(#paint1_linear_1120_1186)"/>
</g>
<path d="M30.262 21.4915L33.7655 23.0404L34.3664 26.5812L34.7013 28.1849L35.6559 33.8307L32.0141 32.2206L31.3723 28.4504L31.1954 27.1044L30.262 21.4915ZM44.4933 23.5574C43.0313 25.4779 41.3133 26.9253 39.3394 27.8995C37.37 28.8678 35.2993 29.3688 33.1274 29.4025C30.9677 29.4337 28.8699 28.9992 26.8338 28.0991C24.7901 27.1955 23.2462 26.0199 22.202 24.5722C21.17 23.122 20.719 21.5022 20.849 19.7128C20.9789 17.9233 21.7727 16.0713 23.2302 14.1567C24.6922 12.2362 26.4079 10.7917 28.3774 9.82339C30.3513 8.8492 32.4181 8.3465 34.5778 8.31529C36.7497 8.28163 38.8575 8.71658 40.9012 9.62014C42.9372 10.5203 44.4712 11.6955 45.5032 13.1456C46.5474 14.5933 47.0045 16.2119 46.8745 18.0013C46.749 19.7849 45.9553 21.6369 44.4933 23.5574ZM40.9667 21.9983C42.0811 20.5345 42.7082 19.1644 42.848 17.888C43 16.6092 42.7343 15.4744 42.051 14.4836C41.3797 13.4903 40.368 12.6947 39.0157 12.0969C37.6558 11.4956 36.2435 11.2195 34.7789 11.2684C33.3187 11.3115 31.8941 11.699 30.5051 12.431C29.1282 13.1605 27.8826 14.2571 26.7683 15.7209C25.654 17.1847 25.0208 18.556 24.8688 19.8348C24.7289 21.1112 24.9946 22.2461 25.6658 23.2393C26.3416 24.2267 27.3594 25.0211 28.7193 25.6223C30.0715 26.2202 31.4777 26.4975 32.9379 26.4544C34.4103 26.4089 35.8349 26.0214 37.2117 25.2919C38.6007 24.5599 39.8524 23.4621 40.9667 21.9983Z" fill="#6E7CA5"/>
<defs>
<filter id="filter0_b_1120_1186" x="-164.4" y="-144.676" width="396.8" height="369.628" filterUnits="userSpaceOnUse" color-interpolation-filters="sRGB">
<feFlood flood-opacity="0" result="BackgroundImageFix"/>
<feGaussianBlur in="BackgroundImageFix" stdDeviation="82.2"/>
<feComposite in2="SourceAlpha" operator="in" result="effect1_backgroundBlur_1120_1186"/>
<feBlend mode="normal" in="SourceGraphic" in2="effect1_backgroundBlur_1120_1186" result="shape"/>
</filter>
<filter id="filter1_b_1120_1186" x="-3.98291" y="-4" width="75.9468" height="47.4258" filterUnits="userSpaceOnUse" color-interpolation-filters="sRGB">
<feFlood flood-opacity="0" result="BackgroundImageFix"/>
<feGaussianBlur in="BackgroundImageFix" stdDeviation="2"/>
<feComposite in2="SourceAlpha" operator="in" result="effect1_backgroundBlur_1120_1186"/>
<feBlend mode="normal" in="SourceGraphic" in2="effect1_backgroundBlur_1120_1186" result="shape"/>
</filter>
<linearGradient id="paint0_linear_1120_1186" x1="68" y1="43.4841" x2="-2.44001e-06" y2="43.4841" gradientUnits="userSpaceOnUse">
<stop stop-color="#D1D8EF"/>
<stop offset="0.398949" stop-color="#D8E1FB"/>
<stop offset="0.607454" stop-color="#B5BED9"/>
<stop offset="1" stop-color="#B4BDD8"/>
</linearGradient>
<linearGradient id="paint1_linear_1120_1186" x1="-0.0231367" y1="0.0233409" x2="2.10618" y2="57.9287" gradientUnits="userSpaceOnUse">
<stop stop-color="#EDF1FD"/>
<stop offset="1" stop-color="#E1E5F1"/>
</linearGradient>
</defs>
</svg>
