<svg width="30" height="27" viewBox="0 0 30 27" fill="none" xmlns="http://www.w3.org/2000/svg">
<g filter="url(#filter0_b_1254_3338)">
<path d="M29.9972 8.70312H0V17.6013L0.00779733 17.6013C0.00779724 19.165 2.07833 20.4234 6.21939 22.9401C10.3604 25.4569 12.431 26.7153 15.0039 26.7153C17.5768 26.7153 19.6474 25.4569 23.7884 22.9401C27.9295 20.4234 30 19.165 30 17.6013C30 17.5682 29.9991 17.5354 29.9972 17.5026V8.70312Z" fill="url(#paint0_linear_1254_3338)"/>
</g>
<g filter="url(#filter1_b_1254_3338)">
<path d="M6.21615 3.60234C10.355 1.20078 12.4245 8.89384e-08 14.9961 0C17.5676 -8.89384e-08 19.6371 1.20078 23.776 3.60234C27.9149 6.00391 29.9843 7.20469 29.9843 8.69683C29.9843 10.189 27.9149 11.3897 23.776 13.7913C19.6371 16.1929 17.5676 17.3937 14.9961 17.3937C12.4245 17.3937 10.355 16.1929 6.21615 13.7913C2.07726 11.3897 0.00781241 10.189 0.0078125 8.69683C0.00781259 7.20469 2.07726 6.00391 6.21615 3.60234Z" fill="url(#paint1_linear_1254_3338)"/>
</g>
<path d="M13.3499 9.48179L14.8956 10.1652L15.1607 11.7273L15.3084 12.4348L15.7296 14.9256L14.1229 14.2152L13.8398 12.5519L13.7617 11.9581L13.3499 9.48179ZM19.6284 10.3932C18.9834 11.2405 18.2255 11.8791 17.3547 12.3089C16.4858 12.7361 15.5723 12.9571 14.6141 12.9719C13.6613 12.9857 12.7358 12.794 11.8375 12.3969C10.9359 11.9983 10.2547 11.4796 9.79407 10.8409C9.33877 10.2011 9.13978 9.48653 9.19712 8.69707C9.25445 7.90761 9.60464 7.09053 10.2477 6.24584C10.8927 5.39856 11.6496 4.76132 12.5185 4.33411C13.3893 3.90432 14.3012 3.68254 15.254 3.66877C16.2122 3.65392 17.1421 3.84581 18.0437 4.24444C18.9419 4.64157 19.6187 5.16002 20.074 5.7998C20.5347 6.43848 20.7363 7.15256 20.679 7.94202C20.6236 8.72889 20.2734 9.54597 19.6284 10.3932ZM18.0726 9.70539C18.5642 9.05959 18.8409 8.45515 18.9026 7.89204C18.9697 7.32784 18.8524 6.82719 18.5509 6.39006C18.2548 5.95185 17.8084 5.60087 17.2119 5.33712C16.6119 5.07186 15.9888 4.95003 15.3427 4.97163C14.6985 4.99064 14.07 5.1616 13.4572 5.48452C12.8497 5.80635 12.3002 6.29016 11.8086 6.93595C11.317 7.58174 11.0376 8.18673 10.9706 8.75093C10.9089 9.31403 11.0261 9.81469 11.3222 10.2529C11.6203 10.6885 12.0694 11.039 12.6693 11.3042C13.2659 11.568 13.8863 11.6903 14.5305 11.6713C15.1801 11.6512 15.8086 11.4803 16.416 11.1584C17.0288 10.8355 17.581 10.3512 18.0726 9.70539Z" fill="#6E7CA5"/>
<defs>
<filter id="filter0_b_1254_3338" x="-164.4" y="-155.697" width="358.8" height="346.812" filterUnits="userSpaceOnUse" color-interpolation-filters="sRGB">
<feFlood flood-opacity="0" result="BackgroundImageFix"/>
<feGaussianBlur in="BackgroundImageFix" stdDeviation="82.2"/>
<feComposite in2="SourceAlpha" operator="in" result="effect1_backgroundBlur_1254_3338"/>
<feBlend mode="normal" in="SourceGraphic" in2="effect1_backgroundBlur_1254_3338" result="shape"/>
</filter>
<filter id="filter1_b_1254_3338" x="-3.99219" y="-4" width="37.9766" height="25.3945" filterUnits="userSpaceOnUse" color-interpolation-filters="sRGB">
<feFlood flood-opacity="0" result="BackgroundImageFix"/>
<feGaussianBlur in="BackgroundImageFix" stdDeviation="2"/>
<feComposite in2="SourceAlpha" operator="in" result="effect1_backgroundBlur_1254_3338"/>
<feBlend mode="normal" in="SourceGraphic" in2="effect1_backgroundBlur_1254_3338" result="shape"/>
</filter>
<linearGradient id="paint0_linear_1254_3338" x1="30" y1="19.1855" x2="-1.07648e-06" y2="19.1855" gradientUnits="userSpaceOnUse">
<stop stop-color="#D1D8EF"/>
<stop offset="0.398949" stop-color="#D8E1FB"/>
<stop offset="0.607454" stop-color="#B5BED9"/>
<stop offset="1" stop-color="#B4BDD8"/>
</linearGradient>
<linearGradient id="paint1_linear_1254_3338" x1="-0.00993449" y1="0.0102974" x2="0.929468" y2="25.5568" gradientUnits="userSpaceOnUse">
<stop stop-color="#EDF1FD"/>
<stop offset="1" stop-color="#E1E5F1"/>
</linearGradient>
</defs>
</svg>
