<svg width="61" height="59" viewBox="0 0 61 59" fill="none" xmlns="http://www.w3.org/2000/svg">
<path d="M47.5095 37.9647C47.475 37.8828 47.4364 37.8028 47.3939 37.725C46.804 36.5752 45.677 35.1647 44.0128 33.4898L43.9788 33.4513L43.9618 33.4338L43.9431 33.4146H43.9261C43.1696 32.6341 42.6919 32.1108 42.4913 31.8413C42.1241 31.3303 42.0426 30.814 42.2431 30.289C42.3842 29.8935 42.9163 29.057 43.836 27.7794C44.3204 27.1021 44.7029 26.5596 44.9868 26.1519C47.0267 23.2118 47.9141 21.3339 47.6421 20.5167L47.5367 20.3242C47.4653 20.2104 47.2817 20.1037 46.9876 20.0092C46.6918 19.9129 46.3144 19.8971 45.8555 19.9602L40.7557 19.9987C40.6393 19.9673 40.5166 19.9709 40.4021 20.0092L40.1726 20.0669L40.0842 20.1142L40.0129 20.1719C39.9375 20.227 39.8719 20.2951 39.8191 20.3732C39.7449 20.4753 39.6853 20.5879 39.6423 20.7074C39.1151 22.1909 38.4822 23.6322 37.7486 25.0196C37.3117 25.8123 36.9105 26.4984 36.5433 27.0811C36.2709 27.5336 35.9634 27.9626 35.6237 28.3639C35.4148 28.6006 35.1899 28.8217 34.9505 29.0255C34.7499 29.1917 34.5969 29.2617 34.4915 29.2355C34.3904 29.2117 34.2895 29.1866 34.1889 29.1602C34.02 29.0403 33.8831 28.8783 33.7912 28.6894C33.6805 28.4548 33.6114 28.2018 33.5872 27.9422C33.5555 27.6848 33.5351 27.4261 33.526 27.1669C33.521 26.86 33.5238 26.5531 33.5345 26.2464C33.5464 25.8508 33.5515 25.5813 33.5515 25.4413C33.5515 24.9566 33.5617 24.428 33.5787 23.861L33.6229 22.51C33.6348 22.1775 33.6399 21.8257 33.6399 21.4547C33.6458 21.1629 33.6253 20.8711 33.5787 20.5832C33.5377 20.3729 33.4756 20.1677 33.3934 19.9707C33.3196 19.7837 33.1935 19.6236 33.0313 19.5104C32.848 19.3912 32.647 19.3038 32.4363 19.2514C31.8125 19.0974 31.0152 19.0151 30.0479 19.0029C27.8534 18.9766 26.4424 19.1306 25.8169 19.4614C25.5687 19.6014 25.3443 19.7939 25.1437 20.0372C24.9312 20.3172 24.9023 20.4712 25.0553 20.4974C25.7642 20.6112 26.2656 20.8859 26.5597 21.3199L26.6668 21.551C26.7501 21.7172 26.8317 22.0112 26.915 22.433C26.9966 22.853 27.051 23.3203 27.0731 23.8313C27.1326 24.7641 27.1326 25.5638 27.0731 26.2271C27.0153 26.8921 26.9592 27.4084 26.9048 27.7794C26.8503 28.2485 26.6966 28.6995 26.4543 29.1007C26.4317 29.1388 26.4016 29.1716 26.3659 29.197C26.2142 29.2605 26.052 29.2932 25.8883 29.2932C25.7217 29.2932 25.5211 29.204 25.2865 29.0255C25.0142 28.8101 24.7677 28.5622 24.5521 28.2869C24.2317 27.8738 23.9441 27.4349 23.692 26.9744C23.3314 26.3263 23.0007 25.6611 22.7009 24.9811L22.4187 24.4245C22.1678 23.9087 21.9258 23.3882 21.6929 22.8635C21.3869 22.181 21.1149 21.5177 20.8769 20.8789C20.7996 20.6352 20.652 20.4215 20.4536 20.2664L20.3652 20.2087C20.2782 20.1414 20.1827 20.0866 20.0813 20.0459C19.9506 19.9881 19.8136 19.9464 19.6734 19.9216L14.8252 19.9602C14.3288 19.9602 13.9922 20.0827 13.8155 20.3242L13.7441 20.4397C13.7026 20.5358 13.6845 20.6409 13.6914 20.7459C13.6914 20.8859 13.7254 21.0592 13.7985 21.2622C14.5056 23.0648 15.2757 24.8026 16.1069 26.4774C16.9399 28.1487 17.6624 29.498 18.276 30.52C18.888 31.542 19.5153 32.5063 20.1527 33.4128C20.7902 34.3194 21.2118 34.9004 21.4175 35.1577C21.6249 35.4132 21.7864 35.6039 21.9054 35.7317L22.3473 36.1919C22.6312 36.4982 23.046 36.8657 23.5951 37.2945C24.1441 37.7215 24.751 38.1433 25.4191 38.5598C26.0854 38.9745 26.8606 39.3123 27.748 39.5748C28.6319 39.8373 29.4938 39.9423 30.3318 39.8898H32.3666C32.7797 39.8531 33.0925 39.7113 33.305 39.4698L33.3747 39.3735C33.4355 39.2624 33.4802 39.1427 33.5073 39.0183C33.551 38.847 33.5721 38.6704 33.5702 38.4933C33.5537 37.9946 33.5919 37.4956 33.6841 37.0057C33.7725 36.5665 33.8728 36.2339 33.9867 36.0099C34.1484 35.6794 34.3809 35.391 34.6666 35.1664C34.7127 35.1409 34.7604 35.1187 34.8094 35.0999C35.0916 34.9984 35.4248 35.0964 35.809 35.3974C36.1931 35.6984 36.5535 36.0677 36.8901 36.5087C37.225 36.9497 37.6296 37.445 38.1021 37.9945C38.573 38.544 38.9861 38.9518 39.3414 39.2195L39.695 39.4505C39.9313 39.6046 40.2389 39.7446 40.6146 39.8723C40.992 40.0001 41.3235 40.0316 41.6074 39.9686L46.1376 39.8916C46.5864 39.8916 46.9349 39.8111 47.1814 39.6518C47.4296 39.4925 47.5775 39.3158 47.6234 39.125C47.6714 38.9106 47.6749 38.6882 47.6336 38.4723C47.6095 38.2991 47.5679 38.129 47.5095 37.9647Z" fill="white"/>
</svg>
