<svg width="24" height="25" viewBox="0 0 24 25" fill="none" xmlns="http://www.w3.org/2000/svg">
<g clip-path="url(#clip0_1144_1239)">
<path d="M21.8939 17.3369C21.8736 17.2901 21.8509 17.2444 21.8259 17.1999C21.4789 16.5429 20.8159 15.7369 19.8369 14.7799L19.8169 14.7579L19.8069 14.7479L19.7959 14.7369H19.7859C19.3409 14.2909 19.0599 13.9919 18.9419 13.8379C18.7259 13.5459 18.6779 13.2509 18.7959 12.9509C18.8789 12.7249 19.1919 12.2469 19.7329 11.5169C20.0179 11.1299 20.2429 10.8199 20.4099 10.5869C21.6099 8.90688 22.1319 7.83388 21.9719 7.36688L21.9099 7.25688C21.8679 7.19188 21.7599 7.13088 21.5869 7.07688C21.4129 7.02188 21.1909 7.01288 20.9209 7.04888L17.9209 7.07088C17.8524 7.05294 17.7802 7.05503 17.7129 7.07688L17.5779 7.10988L17.5259 7.13688L17.4839 7.16988C17.4395 7.20136 17.401 7.24027 17.3699 7.28488C17.3262 7.34324 17.2912 7.40756 17.2659 7.47588C16.9558 8.32355 16.5834 9.14713 16.1519 9.93988C15.8949 10.3929 15.6589 10.7849 15.4429 11.1179C15.2826 11.3764 15.1017 11.6216 14.9019 11.8509C14.779 11.9861 14.6467 12.1124 14.5059 12.2289C14.3879 12.3239 14.2979 12.3639 14.2359 12.3489C14.1763 12.3353 14.117 12.321 14.0579 12.3059C13.9585 12.2373 13.878 12.1448 13.8239 12.0369C13.7587 11.9028 13.7181 11.7582 13.7039 11.6099C13.6852 11.4628 13.6732 11.315 13.6679 11.1669C13.6649 10.9915 13.6666 10.8161 13.6729 10.6409C13.6799 10.4149 13.6829 10.2609 13.6829 10.1809C13.6829 9.90388 13.6889 9.60188 13.6989 9.27788L13.7249 8.50588C13.7319 8.31588 13.7349 8.11488 13.7349 7.90288C13.7383 7.73613 13.7263 7.56941 13.6989 7.40488C13.6748 7.28475 13.6382 7.16745 13.5899 7.05488C13.5464 6.94808 13.4723 6.85656 13.3769 6.79188C13.269 6.72381 13.1508 6.67381 13.0269 6.64388C12.6599 6.55588 12.1909 6.50888 11.6219 6.50188C10.3309 6.48688 9.50086 6.57488 9.13286 6.76388C8.98686 6.84388 8.85486 6.95388 8.73686 7.09288C8.61186 7.25288 8.59486 7.34088 8.68486 7.35588C9.10186 7.42088 9.39686 7.57788 9.56986 7.82588L9.63286 7.95788C9.68186 8.05288 9.72986 8.22088 9.77886 8.46188C9.82686 8.70188 9.85886 8.96888 9.87186 9.26088C9.90686 9.79388 9.90686 10.2509 9.87186 10.6299C9.83786 11.0099 9.80486 11.3049 9.77286 11.5169C9.74082 11.7849 9.65036 12.0426 9.50786 12.2719C9.49455 12.2936 9.47684 12.3124 9.45586 12.3269C9.36662 12.3632 9.2712 12.3819 9.17486 12.3819C9.07686 12.3819 8.95886 12.3309 8.82086 12.2289C8.66066 12.1058 8.51565 11.9642 8.38886 11.8069C8.20038 11.5708 8.03117 11.32 7.88286 11.0569C7.67077 10.6866 7.47623 10.3065 7.29986 9.91788L7.13386 9.59988C6.98627 9.3051 6.84391 9.00772 6.70686 8.70788C6.52686 8.31788 6.36686 7.93888 6.22686 7.57388C6.1814 7.4346 6.09454 7.3125 5.97786 7.22388L5.92586 7.19088C5.87469 7.15242 5.8185 7.12114 5.75886 7.09788C5.68193 7.06486 5.60137 7.04103 5.51886 7.02688L2.66686 7.04888C2.37486 7.04888 2.17686 7.11888 2.07286 7.25688L2.03086 7.32288C2.00646 7.37783 1.99582 7.4379 1.99986 7.49788C1.99986 7.57788 2.01986 7.67688 2.06286 7.79288C2.47886 8.82288 2.93186 9.81588 3.42086 10.7729C3.91086 11.7279 4.33586 12.4989 4.69686 13.0829C5.05686 13.6669 5.42586 14.2179 5.80086 14.7359C6.17586 15.2539 6.42386 15.5859 6.54486 15.7329C6.66686 15.8789 6.76186 15.9879 6.83186 16.0609L7.09186 16.3239C7.25886 16.4989 7.50286 16.7089 7.82586 16.9539C8.14886 17.1979 8.50586 17.4389 8.89886 17.6769C9.29086 17.9139 9.74686 18.1069 10.2689 18.2569C10.7889 18.4069 11.2959 18.4669 11.7889 18.4369H12.9859C13.2289 18.4159 13.4129 18.3349 13.5379 18.1969L13.5789 18.1419C13.6147 18.0784 13.6409 18.01 13.6569 17.9389C13.6826 17.841 13.695 17.7401 13.6939 17.6389C13.6842 17.3539 13.7066 17.0688 13.7609 16.7889C13.8129 16.5379 13.8719 16.3479 13.9389 16.2199C14.034 16.031 14.1708 15.8662 14.3389 15.7379C14.366 15.7233 14.394 15.7106 14.4229 15.6999C14.5889 15.6419 14.7849 15.6979 15.0109 15.8699C15.2369 16.0419 15.4489 16.2529 15.6469 16.5049C15.8439 16.7569 16.0819 17.0399 16.3599 17.3539C16.6369 17.6679 16.8799 17.9009 17.0889 18.0539L17.2969 18.1859C17.4359 18.2739 17.6169 18.3539 17.8379 18.4269C18.0599 18.4999 18.2549 18.5179 18.4219 18.4819L21.0869 18.4379C21.3509 18.4379 21.5559 18.3919 21.7009 18.3009C21.8469 18.2099 21.9339 18.1089 21.9609 17.9999C21.9891 17.8774 21.9911 17.7503 21.9669 17.6269C21.9527 17.5279 21.9282 17.4307 21.8939 17.3369Z" fill="black"/>
</g>
<defs>
<clipPath id="clip0_1144_1239">
<rect width="24" height="24" fill="white" transform="translate(0 0.5)"/>
</clipPath>
</defs>
</svg>
